<?xml version="1.0" encoding="UTF-8"?> <svg xmlns="http://www.w3.org/2000/svg" xmlns:xlink="http://www.w3.org/1999/xlink" width="722" height="467" viewBox="0 0 721.5 466.9"><style><![CDATA[.p{fill-rule:evenodd}.q{opacity:.2}.r{fill:#ededed}.s{fill:#343434}.t{fill:#ffdecc}.u{fill:#fff}.v{opacity:.05}.w{opacity:.1}.x{fill:#605343}.y{fill:#268085}.z{fill:#80604a}.AA{fill:#fe3e31}.AB{fill:#f6d1af}.AC{fill:#bf9741}.AD{fill:#755a48}]]></style><g class="p"><use xlink:href="#B" class="t"></use><use xlink:href="#B" fill="#333"></use><g fill="#f6c89d"><use xlink:href="#C"></use><use xlink:href="#D"></use><use xlink:href="#E"></use></g><use xlink:href="#F" class="u"></use></g><use xlink:href="#G" class="q"></use><use xlink:href="#H" fill="#f6c89d" class="p"></use><path d="M481.1 77.9c3.3-16.3 1.2-54.4-11.5-53.1-11.8-12-53-14.2-64.3-1.3-25.8 5-13.8 54.6-13.8 54.6.8 4.8 1.9 9.2 3.1 13l5.2-.3c-1.9-3.4-3.4-6.9-4-9.5-.3-1.5-1.1-6.8-1-8 .4-8.9 6.8-34.9 17.9-37 4.3-.8 15.2 9 22.3 8.9 7.5-.2 16.8-10 21.7-9.4 11.6 1.6 21.4 25.4 21.3 37 0 1.5-1.9 10.3-4.7 16.6l5.6-.3c.7-3.3 1.6-7.1 2.2-11.2z" class="z"></path><use xlink:href="#I" class="p u"></use><path d="M414.7 135.1l21 26 20.7-26v-.7l-20.7 26-21-26v.7" class="v"></path><g class="p"><path d="M431.6 178.6h7.9v.3h-7.9z" class="w"></path><path d="M437.1 101.9c-.9 0-1.6 1.3-1.6 1.3s-.7-1.3-1.6-1.3c-3.7 0-18.7 1.5-23.1 7.1l22.5-.7c1.2-.3 2.2-2.7 2.2-2.7s1 2.3 2.2 2.7c1.2.3 22.5.7 22.5.7-4.3-5.6-19.4-7.1-23.1-7.1z" class="z"></path><use xlink:href="#B" x="-170" class="t"></use><use xlink:href="#B" x="-170" class="AA"></use><g class="AB"><use xlink:href="#C" x="-170"></use><use xlink:href="#D" x="-170"></use><use xlink:href="#E" x="-170"></use></g></g><use xlink:href="#G" x="-170" class="q"></use><use xlink:href="#H" x="-170" class="p AB"></use><path d="M294.3 19.8c-21.7-17-55.1-6.9-65.2 7.3-12.6 17.8-8.2 44.8-5.2 65V92c0 .2.1.4.1.6s.4.6.5.8.9 0 1.2-.1c.1 0 .1-.2.1-.3.1-1.8 0-5.3 0-5.4-.2-2.8-.8-5.5-1.3-8.2 2-12.8 8-15.5 11.2-30.9l2.1-3c.9-1.1 1.7-2.2 2.8-3.2a15.26 15.26 0 0 0 1.6-1.1c11.7-4.3 23.7.9 34.7 5.3 4.2 1.7 4.8-5.8 9.5-6.1 2-.2 6.1 6.6 7.7 6.4 16.5-1.9 9.6 23.1 12.2 34.7-.4 2-.7 4-.9 6.1 0 0-.1 3.6 0 5.4 0 .1 0 .2.1.3.3.1 1 .3 1.2.1.1-.1.4-.6.5-.8.2-.8.2-1.4.3-2.2.1-1 .3-2.1.4-3.2 3.4-12.4 9.5-62-13.6-67.4zm-32.8 16.8c-.4-.1-.7-.2-1.1-.3.5.1 1.1.3 1.6.4-.1-.1-.3-.1-.5-.1z" class="s"></path><path d="M261.6 178.6h7.9v.3h-7.9z" class="p w"></path><path d="M277.9 25.8s-18.7-13-35.3-6-31.3 9.7-35 5c0 0-10.3 21.7 9 33s41.3 2.3 47.7-4.7 16.7-18.3 22.3-16-8.7-11.3-8.7-11.3z" class="s"></path><g class="p"><use xlink:href="#B" x="-265" y="86" class="t"></use><use xlink:href="#B" x="-265" y="86" class="r"></use><g fill="#f6c8ac"><use xlink:href="#C" x="-265" y="86"></use><use xlink:href="#D" x="-265" y="86"></use><use xlink:href="#E" x="-265" y="86"></use></g><use xlink:href="#J" class="s"></use><path d="M149.7 227.3v9.5l9.1 78.1h-15.6l-17.1-34.8 16.3-10.9-20-9.4 18.4-28.5z" fill="#1a1a1a"></path><path d="M191.4 227.4v9.4l-9.2 78.1h15.6l17.1-34.8-16.3-10.9 20-9.4-16.4-27.6z" fill="#1b1b1b"></path><g class="y"><path d="M161.6 256.8l5 7.8h7.8l5.1-7.8-8.9-9.7-9 9.7z"></path><path d="M166.6 264.6l-7.2 50.3h22.2l-7.1-50.3z"></path></g><use xlink:href="#F" x="-265" y="86" class="s"></use></g><use xlink:href="#G" x="-265" y="86" class="q"></use><g class="p"><use xlink:href="#H" x="-265" y="86" fill="#f6c8ac"></use><use xlink:href="#I" x="-265" y="86" class="s"></use></g><path d="M149.7 221.1l21 26 20.7-26v-.7l-20.7 26-21-26v.7" class="v"></path><path d="M166.6 264.6h7.9v.3h-7.9z" class="p w"></path><g class="x"><path d="M212.3 168.8c-.3 1.2-.7 2.3-.7 2.3s-5.8 19.6-10.7 25.6c-9.5 11.7-21.9 19-30.4 19.1-8.3 0-20.6-6.6-30.2-18-3.8-4.5-10.8-25-10.9-26.7-.1-1-.3-2.1-.5-3.1-1.3 0-1.3 8.7-1.3 8.7 1.9 10.2 3.3 16.8 7.3 22.4 6.4 8.9 24.3 23 35.3 23 10.9 0 28.9-14.1 35.3-23 4-5.6 5.1-13.1 7.3-23.6-.1-.1.5-6.6-.5-6.7z"></path><path d="M190.2 195c-1.5-3.1-13.4-7.3-15.6-8.1s-3.7 2-3.7 2-1.5-2.8-3.7-2-14.1 5-15.6 8.1-2.2 5.3-2.2 7.4v9.7s2.1.1 3.3-.8 2.6-3.5 2.6-6.8 2.4-5.9 5.3-6.5c3.1-.6 10.2-1.8 10.2-3.7 0 1.9 7.6 3.3 10.2 3.7 2.9.5 5.3 3.2 5.3 6.5s1.4 5.9 2.6 6.8 3.3.8 3.3.8v-9.7c.2-2.1-.5-4.3-2-7.4z" class="p"></path></g><use xlink:href="#K" class="p y"></use><path d="M89.7 209.8c3.9-7.3 35.4-13.7 48.2 12.2 12.8 25.8 6.4 34.9 13.4 44 7.1 9.1-9.6 79.7-49.1 79.5-42.2-.4-51.4-67.9-43-81.5 8.4-13.7 1.1-54.2 30.5-54.2z" class="p AC"></path><path d="M120.8 329.9c-.4.6-35.6 1.1-35.9 1.7C73.8 347.4 50 350.3 31 354.5c-18.9 4.2-19.6 28.2-19.7 44.2h184.2c0-16-.4-39.9-19.7-44.2s-44.6-8.1-55-24.6z" fill="#7491a0" class="p"></path><path d="M121.8 331.5v8.7l-9 58.6H93.7l-8.9-57.9v-9.2c.4-.6 35.6-1.1 35.9-1.7.4.4.7 1 1.1 1.5z" class="p u"></path><g fill="#f6dbc2" class="p"><use xlink:href="#L"></use><use xlink:href="#M"></use><use xlink:href="#N"></use></g><path d="M84.9 314.7v1.3s11.6 11.6 18.3 11.6 18.6-11.7 18.6-11.7v-1.1H84.9z" class="p q"></path><use xlink:href="#O" fill="#f6dbc2" class="p"></use><path d="M110.8 244.9c9 18.8 12.6 24.3 24.5 19.4 11.9-5 9.6 8.9 7.5 18.8 10.5-13.4 9.3-26.1 6-39-3.6-14.2-21.7-35.7-38.7-35.3-9.2-1-23.2.2-38.1 10.9-26 18.7-17.3 60.8-10.3 65.7-6.8-38.9 9.8-31 21.3-51.4 3.7-8.9 18.1-9.5 27.8 10.9z" class="p AC"></path><path d="M93.8 398.7H77.2l-16.1-14.6 16.4-10.9-20-9.4 13.2-20.5 5.2-8 8.9-4v9.5l8.9 57.9zm35.2-26.2l16.4 10.9-16.1 15.3h-16.5l9-58.6v-9.3l10.9 4.8 4.8 8.1 11.5 19.5z" class="r p"></path><path d="M479.7 121.9c2.2-7.3 19.5-13.7 26.5 12.2 7.1 25.8 3.5 34.9 7.4 44s-5.3 79.7-27 79.5c-23.2-.2-28.3-67.7-23.7-81.4 4.7-13.7.6-54.3 16.8-54.3zm76.5 0c-2.2-7.3-19.5-13.7-26.5 12.2-7.1 25.8-3.5 34.9-7.4 44s5.3 79.7 27 79.5c23.2-.2 28.3-67.7 23.7-81.4-4.7-13.7-.6-54.3-16.8-54.3z" class="x p"></path><g class="AA p"><path d="M536.8 227.9c-.4.6-35.6 1.1-35.9 1.7-11.1 15.8-34.9 18.7-53.9 22.9-18.9 4.2-19.6 28.2-19.7 44.2h184.2c0-16-.4-39.9-19.7-44.2s-44.6-8.1-55-24.6z"></path><path d="M537.8 229.5v8.7l-9 58.6h-19.2l-8.9-57.9v-9.2c.4-.6 35.6-1.1 35.9-1.7.5.4.8 1 1.2 1.5z"></path></g><g fill="#f6dcb9" class="p"><use xlink:href="#L" x="416" y="-102"></use><use xlink:href="#M" x="416" y="-102"></use><use xlink:href="#N" x="416" y="-102"></use></g><path d="M500.9 212.7v1.3s11.6 11.6 18.3 11.6 18.6-11.7 18.6-11.7v-1.1h-36.9z" class="p q"></path><use xlink:href="#O" x="416" y="-102" fill="#f6dcb9" class="p"></use><path d="M564.8 142.1c-3.6-14.2-21.7-35.7-38.7-35.3-2.4-.3-5.2-.4-8.3-.2-3-.2-5.8-.1-8.3.2-17-.4-35.1 21.1-38.7 35.3-2.9 11.4-4.2 22.6 2.8 34.3 1.2 3.5 2.7 6 4.1 7-1.6-9-1.9-15.4-1.3-20.3 1.3-1.9 3.7-2.5 7.9-.8 11.9 5 15.5-.6 24.5-19.4 2.7-5.8 4.9-12.6 9-12.5 4.1 0 6.3 6.8 9 12.5 9 18.8 12.6 24.3 24.5 19.4 4.2-1.7 6.6-1.1 7.9.8.6 4.9.2 11.4-1.3 20.3 1.4-1 2.9-3.5 4.1-7 7-11.7 5.7-22.9 2.8-34.3z" class="p x"></path><path d="M509.8 296.7h-16.6l-16.1-14.6 16.4-10.9-20-9.4 13.2-20.5 5.2-8 8.9-4v9.5l8.9 57.9zm35.2-26.2l16.4 10.9-16.1 15.3h-16.5l9-58.6v-9.3l10.9 4.8 4.8 8.1 11.5 19.5z" class="r p"></path><use xlink:href="#B" x="167.5" y="170" class="p t"></use><use xlink:href="#B" x="167.5" y="170" fill="#d6d6d6" class="p"></use><use xlink:href="#P" fill="#dbb18a" class="p"></use><g class="AB p"><use xlink:href="#Q"></use><use xlink:href="#R"></use></g><g class="s p"><path d="M594 340.8l5 7.8h7.8l5.1-7.8-8.9-9.7-9 9.7z"></path><path d="M599.1 348.6l-7.2 50.3h22.2l-7.2-50.3z"></path></g><use xlink:href="#F" x="167.5" y="170" class="p r"></use><use xlink:href="#G" x="167.5" y="170" class="q"></use><use xlink:href="#S" fill="#dbb18a" class="p"></use><path d="M575.1 189.8c21.7-17 64.4-14.6 74.5-.4-4.1 14.3-1.1 52.5-4.1 72.8v-.1c0 .2-.1.4-.1.6s-.4.6-.5.8-.9 0-1.2-.1c-.1 0-.1-.2-.1-.3-.1-1.8 0-5.3 0-5.4.2-2.8.8-5.5 1.3-8.2-2-12.8-8-15.5-11.2-30.9l-2.1-3c-.9-1.1-1.7-2.2-2.8-3.2a15.26 15.26 0 0 1-1.6-1.1c-11.7-4.3-11.3-1.1-22.3 3.4-4.2 1.7-16 5-20.7 4.7-2-.2-8.8-.8-9-2.5-8.7 13.5-9.6 23.1-12.2 34.7.4 2 .7 4 .9 6.1 0 0 .1 3.6 0 5.4 0 .1 0 .2-.1.3-.3.1-1 .3-1.2.1-.1-.1-.4-.6-.5-.8-.2-.8-.2-1.4-.3-2.2-.1-1-.3-2.1-.4-3.2-3.3-12.5-9.4-62.1 13.7-67.5zm32.8 16.8c.4-.1.7-.2 1.1-.3-.5.1-1.1.3-1.6.4.1-.1.3-.1.5-.1z" class="s"></path><use xlink:href="#I" x="167.4" y="170" class="p r"></use><path d="M582.2 305.1l20.9 26 20.7-26v-.7l-20.7 26-20.9-26v.7" class="v"></path><g class="p"><path d="M599.1 348.6h7.8l.1.3h-7.9z" class="w"></path><use xlink:href="#B" x="-86.5" y="90" class="t"></use><use xlink:href="#B" x="-86.5" y="90" fill="#7491a0"></use><g fill="#f6d9c7"><use xlink:href="#P" x="-254" y="-80"></use><use xlink:href="#Q" x="-254" y="-80"></use><use xlink:href="#R" x="-254" y="-80"></use></g><g class="s"><path d="M340 260.8l5 7.8h7.8l5.1-7.8-8.9-9.7-9 9.7z"></path><path d="M345.1 268.6l-7.2 50.3h22.2l-7.2-50.3z"></path></g><use xlink:href="#F" x="-86.5" y="90" class="r"></use></g><use xlink:href="#G" x="-86.5" y="90" class="q"></use><use xlink:href="#S" x="-254" y="-80" fill="#f6d9c7" class="p"></use><path d="M378.6 109.8c-22.1-19.5-65.4 5.4-75.5 19.6 4.1 14.3 2.1 32.5 5.1 52.8v-.1c0 .2.1.4.1.6s.4.6.5.8.9 0 1.2-.1c.1 0 .1-.2.1-.3.1-1.8 0-5.3 0-5.4-.2-2.8.2-5.6-.2-8.4 2-12.8.4-13.3 7.4-26.1.6-1.1 4.3-5.4 4.8-5.8 11.7-4.3 15.7 2.8 26.7 7.3 4.2 1.7 10.5 1.8 15.2 1.8 7.3 0 14.3-8 14.4-9.6 8.7 13.5 9.6 23.1 12.2 34.7-.3 2-.7 4-.9 6.1 0 0-.1 3.6 0 5.4 0 .1 0 .2.1.3.3.1 1 .3 1.2.1.1-.1.4-.6.5-.8.2-.8.2-1.4.3-2.2.1-1 .3-2.1.4-3.2 3.3-12.5 9.5-62.1-13.6-67.5zm-32.8 16.8c-.4-.1-.7-.2-1.1-.3.5.1 1.1.3 1.6.4-.2-.1-.3-.1-.5-.1z" class="AC"></path><path d="M140.5 100.3c22.6-19.5 67 5.4 77.3 19.6-4.2 14.3-2.1 32.5-5.2 52.8v-.1c0 .2-.1.4-.1.6s-.4.6-.5.8-.9 0-1.2-.1c-.1 0-.1-.2-.1-.3-.1-1.8 0-5.3 0-5.4.2-2.8-.2-5.6.3-8.4-2.1-12.8-.4-13.3-7.6-26.1-.6-1.1-4.4-5.4-5-5.8-11.9-4.3-16.1 2.8-27.4 7.3-4.3 1.7-10.8 1.8-15.6 1.8-7.4 0-14.6-8-14.8-9.6-8.9 13.5-9.8 23.1-12.5 34.7.4 2 .7 4 .9 6.1 0 0 .1 3.6 0 5.4 0 .1 0 .2-.1.3-.3.1-1.1.3-1.2.1-.1-.1-.4-.6-.5-.8-.2-.8-.2-1.4-.3-2.2-.1-1-.3-2.1-.5-3.2-3.2-12.5-9.5-62.2 14.1-67.5zm33.7 16.7c.4-.1.7-.2 1.1-.3-.5.1-1.1.3-1.6.4.1 0 .3 0 .5-.1z" class="x"></path><use xlink:href="#I" x="-86.6" y="90" class="p r"></use><path d="M328.2 225.1l20.9 26 20.7-26v-.7l-20.7 26-20.9-26v.7" class="v"></path><g class="p"><path d="M345.1 268.6h7.8l.1.3h-7.9z" class="w"></path><path d="M462.4 240.3c4.5-7.9 40.8-14.9 55.5 13.2 14.8 28.1 7.3 37.9 15.5 47.8s.5 32.6-5.2 34.6-3.4 9.9-.6 13.2c11.8 14.4-5.3 38.7-50.8 38.5-48.7-.3-58.2-28.5-45.7-37.4 4.1-2.9 5.6-8.4 1.2-13.3-4.5-4.9-14.7-23-5-37.9 9.6-14.6 1.2-58.7 35.1-58.7z" fill="#806049"></path><path d="M496.8 355.9c-.4.6-35.6 1.1-35.9 1.7-11.1 15.8-34.9 22.7-53.9 26.9-18.9 4.2-19.6 28.2-19.7 44.2h184.2c0-16-.4-39.9-19.7-44.2s-44.6-12.1-55-28.6z" class="y"></path><g fill="#f5d5c1"><use xlink:href="#L" x="376" y="30"></use><use xlink:href="#M" x="376" y="30"></use><use xlink:href="#N" x="376" y="30"></use></g><path d="M460.9 344.7v1.3s11.6 11.6 18.3 11.6 18.6-11.7 18.6-11.7v-1.1h-36.9z" class="q"></path><use xlink:href="#O" x="376" y="30" fill="#f5d5c1"></use><path d="M470.8 274.9c-9 18.8-12.6 24.3-24.5 19.4-11.9-5-9.6 8.9-7.5 18.8-10.5-13.4-9.3-26.1-6-39 3.6-14.2 21.7-35.7 38.7-35.3 9.2-1 23.2.2 38.1 10.9 26 18.7 17.3 60.8 10.3 65.7 6.8-38.9-9.8-31-21.3-51.4-3.7-8.9-18.1-9.5-27.8 10.9z" class="z"></path><g class="u"><path d="M476.9 382h3.8v46.7h-3.8z"></path><path d="M460.9 357.5l-13.2 12.1 16.8 26 14.4-13.7zm36.9 0L511 370l-17.6 25.6-14.5-13.7z"></path></g><path d="M499.4 321.6c.4 0 .7 0 1.1-.1 10.5-.9 13.1-5.6 14.2-11.5 1.3-6.5 1.4-8.8 3.1-9.4 1.2-.4 1.5-1.9 1.5-3.6s-.1-1.9-2.1-2.6c-1.6-.6-10.6-1.4-17.3-1v1.8c5.3-.3 10.4.3 11.9 1.3 3.4 2.2 2.4 12.7-.5 17.9-2 3.6-7.2 5.5-11.9 5.5v1.7zm-19.6-24.7c-2.3.1-11.8-2.7-18.5-3.3-.5 0-1-.1-1.5-.1v1.8c5.5.2 11.1 1.5 13.1 4.4 3.2 4.8-2.5 16.5-7.7 19.1-1.6.8-3.6 1.2-5.8 1.2v1.7c9.1 0 12.4-6.5 13.5-8.7 2.1-4.1 1.7-9.8 6.9-9.8s4.5 5.5 6.4 9.6c1 2.2 3.9 9 13.3 8.7v-1.7c-2.3 0-4.5-.4-6.1-1.2-5-2.6-10-14.3-6.5-19.1 2.1-2.9 7.7-4.2 13.1-4.5v-1.8c-.4 0-.8.1-1.2.1-6.2.8-13.5 3.5-19 3.6zm-20-3.3c-6.6-.4-15.4.5-17.1 1-2.1.7-2.2.9-2.3 2.6s.1 3.2 1.3 3.6c1.7.6 1.6 2.9 2.5 9.4.8 5.9 3.1 10.6 13.5 11.5.5 0 1 .1 1.6.1v-1.7c-4.8 0-10.1-1.8-11.9-5.5-2.5-5.2-2.9-15.7.6-17.9 1.5-.9 6.5-1.6 11.7-1.4l.1-1.7z" class="y"></path><path d="M460.9 357.5l18 24.4 18.9-24.4v-.6l-18.9 24.3-18-24.3z" class="v"></path><use xlink:href="#T" class="t"></use><use xlink:href="#T" fill="#333"></use><g fill="#ffdbba"><use xlink:href="#P" x="-363.9" y="34.5"></use><use xlink:href="#Q" x="-363.9" y="34.5"></use><use xlink:href="#R" x="-363.9" y="34.5"></use></g><use xlink:href="#J" x="68.5" y="118.5" class="u"></use><path d="M218.3 345.8v9.5l9 78h-15.6l-17.1-34.7 16.4-10.9-20-9.4 18.4-28.5zm41.6.1v9.4l-9.1 78h15.6l17.1-34.7-16.3-10.9 19.9-9.4-16.3-27.6z" fill="#605f5b"></path><path d="M230.1 375.3l5 7.8h7.8l5.1-7.8-8.9-9.7-9 9.7z" fill="#c93838"></path><path d="M235.2 383.1l-7.2 50.2h22.2l-7.2-50.2z" class="AA"></path><use xlink:href="#F" x="-196.4" y="204.4" class="r"></use></g><use xlink:href="#G" x="-196.4" y="204.5" class="q"></use><g class="p"><path d="M272.1 225.9c9.5 1.5 14.8 8.1 17.1 16.9 5.9 23.1-6.4 73.2-49 73.8-22 .3-37.8-5.3-43.6-23.1s-8.1-46.4 4.4-62.5c15.8-20.2 48.9-20.4 71.1-5.1z" class="AD"></path><use xlink:href="#S" x="-363.9" y="34.5" fill="#ffdbba"></use><path d="M208.1 249.9c11.4 6.9 20.3-3.4 30.6 1s38.2-16.9 44.3 30c9.8-34-5-58.4-42.2-60-39.7-1.7-55.8 34.5-44.8 68.3-.8-18.3 3.6-30.3 12.1-39.3z" class="AD"></path></g><path d="M207.1 246.8c.3 5.9 10.3 6.8 14.5 7.1 4 .3 7.9-.4 11.7-1.5 4.7-1.3 10.6-3 14.4-6.2.4-.3.2-1-.3-1.1-7.2-1.2-14.7 4.7-21.9 5.4-5.7.5-13.2-.3-17.7-4.1-.3-.1-.7 0-.7.4z" class="AD"></path><g class="p"><use xlink:href="#K" x="68" y="122" fill="#c93838"></use><use xlink:href="#I" x="-196.5" y="204.4" class="r"></use></g><path d="M218.3 339.5l20.9 26.1 20.7-26.1v-.6l-20.7 26-20.9-26v.6" class="v"></path><g class="p"><path d="M235.2 383.1h7.8l.1.3h-7.9z" class="w"></path><use xlink:href="#U" class="t"></use><use xlink:href="#U" fill="#333"></use><g fill="#f6c5a0"><use xlink:href="#C" x="-89.6" y="230"></use><path d="M302.5 303.3c3.7-1.2 8.3 3 10.4 9.3s.8 12.5-2.9 13.7-8.3-3-10.4-9.3-.8-12.5 2.9-13.7zm86.7 0c-3.7-1.2-8.3 3-10.4 9.3s-.8 12.5 2.9 13.7 8.3-3 10.4-9.3.8-12.5-2.9-13.7z"></path></g><use xlink:href="#J" x="175.4" y="144.1" fill="#9fbac4"></use><path d="M325.1 371.4v9.4l9.1 78.1h-15.6l-17.1-34.8 16.3-10.9-20-9.3 18.4-28.5z" fill="#1a1a1a"></path><path d="M366.8 371.4v9.4l-9.1 78.1h15.5l17.2-34.8-16.4-10.9 20-9.3-16.3-27.7z" fill="#1b1b1b"></path><path d="M337 400.8l5 7.8h7.8l5-7.8-8.9-9.7-8.9 9.7z" fill="#28a8e3"></path><path d="M342 408.6l-7.1 50.3h22.2l-7.2-50.3z" fill="#48baf6"></path><use xlink:href="#F" x="-89.6" y="230" class="u"></use></g><use xlink:href="#G" x="-89.6" y="230.1" class="q"></use><use xlink:href="#H" x="-89.6" y="230" fill="#f6c5a0" class="p"></use><path d="M374.8 249.9c-21.7-17-55.1-6.9-65.2 7.3-12.6 17.8-8.2 44.8-5.2 65v-.1c0 .2.1.4.1.6s.4.6.5.8.9 0 1.2-.1c.1 0 .1-.2.1-.3.1-1.8 0-5.3 0-5.4-.2-2.8-.8-5.5-1.3-8.2 2-12.8 8-15.5 11.2-30.9l2.1-3c.9-1.1 1.7-2.2 2.8-3.2a15.26 15.26 0 0 0 1.6-1.1c11.7-4.3 23.7.9 34.7 5.3 4.2 1.7 8.9 3.7 13.6 3.4 2-.2 3.5-1.5 3.7-3.1 5.3 15.8 9.6 23.1 12.2 34.7-.4 2-.7 4-.9 6.1 0 0-.1 3.6 0 5.4 0 .1 0 .2.1.3.3.1 1 .3 1.2.1.1-.1.4-.6.5-.8.2-.8.2-1.4.3-2.2.1-1 .3-2.1.4-3.2 3.2-12.5 9.3-62.1-13.7-67.4zm-32.9 16.7c-.4-.1-.7-.2-1.1-.3.5.1 1.1.3 1.6.4-.1 0-.3-.1-.5-.1z" class="x"></path><use xlink:href="#I" x="-89.6" y="230" class="p u"></use><path d="M325.1 365.1l21 26.1 20.7-26.1v-.6l-20.7 25.9-21-25.9v.6" class="v"></path><path d="M342 408.6h7.9v.3H342z" class="p w"></path><defs><path id="B" d="M416.1 140.7c-42.9 18.8-55.8 28.8-60.9 33.4-7.8 6.9-12.2 32.8-16.8 54.8h194.2c-4.6-22-9-47.8-16.8-54.8-5.1-4.5-17.5-14.3-60.4-33.1l-39.3-.3z"></path><path id="C" d="M414.7 103.2v47.6c11.5 13.6 30.2 14 41.7 0v-47.6c0-25.7-41.7-25.7-41.7 0z"></path><path id="D" d="M392.1 73.3c3.7-1.2 8.3 3 10.4 9.3s.8 12.5-2.9 13.7-8.3-3-10.4-9.3c-2.1-6.4-.8-12.5 2.9-13.7z"></path><path id="E" d="M478.8 73.3c-3.7-1.2-8.3 3-10.4 9.3s-.8 12.5 2.9 13.7 8.3-3 10.4-9.3c2.1-6.4.8-12.5-2.9-13.7z"></path><path id="F" d="M414.7 135.1l-1.8 7.1 5.1 36.9 17.7-17.9-21-26.1z"></path><path id="G" d="M414.7 126.2v1.5s10.6 12.6 20.8 13.1 20.9-12.2 20.9-12.2v-2.3"></path><path id="H" d="M435.6 17.8c-64.1 0-39.5 87.8-35.4 94.6 4.6 7.4 25 23.8 35.4 23.8s30.7-16.4 35.4-23.8c4.1-6.8 28.7-94.6-35.4-94.6z"></path><path id="I" d="M456.4 135.1l1.4 7-4.8 37.4-17.4-18.3 20.8-26.1z"></path><path id="J" d="M170.7 247.1s-29.1 6.9-29.1 8.7 11.1 59 11.1 59h39.5l4.5-58.8-26-8.9z"></path><path id="K" d="M190.9 182c.4 0 .7 0 1.1-.1 10.4-.9 13-5.6 14.2-11.5 1.3-6.5 1.4-8.8 3.1-9.4 1.2-.4 1.5-1.9 1.5-3.6s-.1-1.9-2.1-2.6c-1.6-.6-10.5-1.4-17.2-.9v1.8c5.3-.3 10.3.3 11.8 1.3 3.3 2.2 2.4 12.6-.5 17.8-2 3.6-7.1 5.4-11.8 5.5l-.1 1.7zm-19.4-24.6c-2.3.1-11.7-2.7-18.4-3.2-.5 0-1-.1-1.5-.1v1.8c5.4.2 11.1 1.5 13 4.4 3.2 4.8-2.5 16.4-7.7 19-1.6.8-3.6 1.2-5.8 1.2v1.7c9 0 12.4-6.5 13.5-8.7 2.1-4.1 1.7-9.7 6.8-9.7 5.2 0 4.5 5.5 6.3 9.6 1 2.2 3.9 9 13.3 8.7v-1.6c-2.3 0-4.5-.4-6.1-1.2-5-2.6-10-14.2-6.5-19 2.1-2.9 7.7-4.2 13.1-4.4v-1.8c-.4 0-.8.1-1.2.1-6.1.5-13.4 3.1-18.8 3.2zm-19.9-3.3c-6.6-.4-15.4.5-17 1-2.1.7-2.1.9-2.3 2.6-.1 1.7.1 3.1 1.3 3.6 1.6.6 1.6 2.9 2.5 9.4.8 5.9 3.1 10.6 13.5 11.4.5 0 1 .1 1.5.1v-1.7c-4.8 0-10.1-1.8-11.9-5.5-2.5-5.2-2.9-15.6.6-17.8 1.5-.9 6.5-1.6 11.7-1.4l.1-1.7z"></path><path id="L" d="M84.9 292.2v45.2c9.2 18.9 25.9 19.4 36.9 0v-45.2c0-24.4-36.9-24.4-36.9 0z"></path><path id="M" d="M152 271.1c-3.7-1.7-8.9 2.4-11.6 9.1s-2 13.5 1.7 15.1c3.7 1.7 8.9-2.4 11.6-9.1 2.8-6.7 2-13.4-1.7-15.1z"></path><path id="N" d="M54.7 271.1c3.7-1.7 8.9 2.4 11.6 9.1s2 13.5-1.7 15.1c-3.7 1.7-8.9-2.4-11.6-9.1-2.8-6.7-2-13.4 1.7-15.1z"></path><path id="O" d="M103.4 323.5c-11.5 0-35.7-18.9-43.2-46-7.6-27.3 6.7-66.5 43.2-66.5s50.7 39.2 43.2 66.5c-7.5 27.1-31.8 46-43.2 46z"></path><path id="P" d="M582.2 273.2v47.6c11.5 13.6 30.2 14 41.7 0v-47.6c-.1-25.7-41.7-25.7-41.7 0z"></path><path id="Q" d="M559.5 243.3c3.7-1.2 8.3 3 10.4 9.3s.8 12.5-2.9 13.7-8.3-3-10.4-9.3c-2-6.4-.7-12.5 2.9-13.7z"></path><path id="R" d="M646.3 243.3c-3.7-1.2-8.3 3-10.4 9.3s-.8 12.5 2.9 13.7 8.3-3 10.4-9.3c2-6.4.8-12.5-2.9-13.7z"></path><path id="S" d="M603 187.8c-64.1 0-39.5 87.8-35.4 94.6 4.6 7.4 25 23.8 35.4 23.8s30.7-16.4 35.4-23.8c4.2-6.8 28.8-94.6-35.4-94.6z"></path><path id="T" d="M219.7 345.2c-42.9 18.8-55.8 28.9-60.9 33.4-7.8 6.9-12.2 32.8-16.8 54.8h194.2c-4.6-22-9-47.8-16.8-54.8-5.1-4.5-17.5-14.3-60.4-33.1l-39.3-.3z"></path><path id="U" d="M326.5 370.7c-42.9 18.8-55.8 28.8-60.9 33.4-7.8 6.9-12.2 32.8-16.8 54.8h194.3c-4.6-22-9-47.8-16.8-54.8-5.1-4.5-17.5-14.3-60.4-33.1l-39.4-.3z"></path></defs></svg> 